<?xml version="1.0" encoding="UTF-8" standalone="no"?>
<!DOCTYPE svg PUBLIC "-//W3C//DTD SVG 20010904//EN"
              "http://www.w3.org/TR/2001/REC-SVG-20010904/DTD/svg10.dtd">

<svg xmlns="http://www.w3.org/2000/svg"
     width="342.152mm" height="76.1905mm"
     viewBox="0 0 970 216">
  <path id="Selección #3"
        fill="none" stroke="black" stroke-width="1"
        d="M 605.00,59.30
           C 593.87,61.10 585.98,62.84 577.00,70.32
             550.33,92.55 552.41,133.60 582.00,152.29
             589.24,156.87 598.50,159.21 607.00,159.82
             612.24,160.19 622.03,158.09 627.00,156.19
             655.37,145.30 667.39,110.05 651.91,84.00
             642.74,68.58 627.57,60.44 610.00,59.30
             607.96,59.04 606.98,59.20 605.00,59.30 Z
           M 908.00,59.30
           C 896.87,61.10 888.98,62.84 880.00,70.32
             854.18,91.84 855.29,131.48 883.00,150.96
             890.83,156.46 900.52,159.14 910.00,159.82
             915.24,160.19 925.03,158.09 930.00,156.19
             958.37,145.30 970.39,110.05 954.91,84.00
             945.74,68.58 930.57,60.44 913.00,59.30
             910.96,59.04 909.98,59.20 908.00,59.30 Z
           M 602.00,74.30
           C 609.81,73.52 617.85,73.79 625.00,77.38
             643.62,86.72 650.39,112.91 638.21,130.00
             630.13,141.34 620.45,145.15 607.00,145.00
             602.03,144.94 597.57,144.17 593.00,142.10
             563.31,128.63 566.14,81.08 602.00,74.30 Z
           M 905.00,74.30
           C 912.81,73.52 920.85,73.79 928.00,77.38
             946.62,86.72 953.39,112.91 941.21,130.00
             933.13,141.34 923.45,145.15 910.00,145.00
             875.64,144.61 863.81,100.71 890.00,80.53
             894.82,76.82 899.14,75.41 905.00,74.30 Z
           M 599.01,94.78
           C 589.60,97.94 594.11,108.01 600.98,106.64
             607.03,105.44 608.53,95.32 599.01,94.78 Z
           M 617.04,94.84
           C 608.08,98.35 612.88,108.35 619.90,106.55
             625.80,105.04 626.62,94.83 617.04,94.84 Z
           M 902.01,94.78
           C 892.60,97.94 897.11,108.01 903.98,106.64
             910.03,105.44 911.53,95.32 902.01,94.78 Z
           M 920.04,94.84
           C 911.08,98.35 915.88,108.35 922.90,106.55
             928.80,105.04 929.62,94.83 920.04,94.84 Z
           M 597.21,113.74
           C 589.67,118.88 595.76,127.10 601.89,124.90
             607.93,122.74 607.36,111.46 597.21,113.74 Z
           M 615.15,114.03
           C 608.20,120.17 615.09,127.51 620.87,124.64
             626.82,121.70 624.96,110.79 615.15,114.03 Z
           M 900.21,113.74
           C 892.67,118.88 898.76,127.10 904.89,124.90
             910.93,122.74 910.36,111.46 900.21,113.74 Z
           M 918.15,114.03
           C 911.20,120.17 918.09,127.51 923.87,124.64
             929.82,121.69 928.18,110.72 918.15,114.03 Z" />
</svg>
