<?xml version="1.0" encoding="UTF-8" standalone="no"?>
<!DOCTYPE svg PUBLIC "-//W3C//DTD SVG 20010904//EN"
              "http://www.w3.org/TR/2001/REC-SVG-20010904/DTD/svg10.dtd">

<svg xmlns="http://www.w3.org/2000/svg"
     width="342.152mm" height="76.1905mm"
     viewBox="0 0 970 216">
  <path id="Selección #2"
        fill="none" stroke="black" stroke-width="1"
        d="M 115.00,162.00
           C 115.00,162.00 115.00,109.00 115.00,109.00
             122.19,109.00 131.74,107.90 138.00,111.61
             146.60,116.72 151.31,129.05 163.00,125.69
             169.09,123.95 171.48,120.24 170.81,114.00
             170.29,109.08 165.01,96.36 163.05,91.00
             161.30,86.20 158.38,76.88 155.36,73.11
             152.62,69.67 148.35,68.05 144.00,68.56
             140.61,68.95 137.00,70.46 134.87,73.21
             133.04,75.59 132.76,78.51 130.57,79.98
             128.23,81.55 118.26,81.00 115.00,81.00
             115.00,81.00 115.00,37.00 115.00,37.00
             123.60,37.00 145.13,35.78 152.00,39.05
             162.16,43.88 165.84,55.99 175.00,57.30
             181.35,58.20 188.56,53.89 188.51,47.00
             188.49,42.50 181.55,24.45 179.66,19.00
             178.40,15.37 176.17,8.94 173.61,6.23
             164.76,-3.13 152.68,7.46 150.00,8.41
             147.99,9.12 145.14,9.00 143.00,9.00
             143.00,9.00 75.00,9.00 75.00,9.00
             75.00,9.00 59.00,10.00 59.00,10.00
             47.22,10.02 36.52,12.33 27.00,19.68
             1.03,39.72 -1.53,90.45 31.00,105.68
             36.02,108.03 41.49,109.26 47.00,109.68
             63.30,110.92 80.84,100.43 76.61,82.00
             76.19,80.20 75.48,78.58 74.35,77.10
             66.26,66.49 54.39,75.99 48.00,75.80
             42.96,75.65 38.90,71.47 37.15,67.00
             31.99,53.85 43.95,39.99 56.00,36.22
             60.19,34.91 63.69,34.95 68.00,35.00
             82.73,35.18 85.84,43.93 86.00,57.00
             86.00,57.00 86.00,141.00 86.00,141.00
             85.99,145.79 85.53,157.20 82.49,160.78
             78.38,165.61 67.93,164.55 66.16,174.00
             66.00,175.25 65.99,177.71 66.16,179.00
             66.23,180.68 66.50,182.39 67.31,183.90
             70.26,189.35 79.45,189.93 85.00,190.00
             85.00,190.00 154.00,190.00 154.00,190.00
             156.19,190.00 158.93,189.89 161.00,190.58
             164.22,191.67 173.57,199.76 181.79,192.57
             185.10,189.68 186.65,184.07 188.19,180.00
             188.19,180.00 191.05,172.00 191.05,172.00
             191.05,172.00 195.42,160.00 195.42,160.00
             198.58,151.57 202.60,141.44 191.00,137.16
             178.04,132.39 169.81,152.42 158.00,158.67
             148.16,163.89 126.66,162.00 115.00,162.00 Z
           M 226.00,43.00
           C 226.00,43.00 226.00,99.00 226.00,99.00
             226.00,108.40 226.62,123.21 224.79,132.00
             222.92,140.97 211.90,140.17 210.38,150.00
             209.43,156.18 213.32,159.89 219.00,161.06
             226.20,162.55 240.09,162.01 248.00,162.00
             255.26,161.99 266.96,162.49 267.89,153.00
             268.99,141.72 259.97,141.99 255.70,136.67
             252.83,133.09 253.01,128.33 253.00,124.00
             253.00,124.00 253.00,21.00 253.00,21.00
             253.00,18.25 253.13,14.57 252.11,12.02
             249.91,6.48 244.14,5.54 239.00,7.25
             233.92,8.94 225.47,16.40 221.00,20.00
             218.25,22.22 214.79,24.81 213.17,28.00
             212.26,29.81 211.96,31.99 212.07,34.00
             212.51,41.82 219.77,42.49 226.00,43.00 Z
           M 438.00,38.00
           C 438.00,38.00 428.00,31.44 428.00,31.44
             417.44,24.71 405.53,20.86 393.00,20.21
             387.93,19.94 377.87,21.96 373.00,23.70
             330.60,38.85 333.08,110.90 379.00,117.13
             384.44,117.87 388.63,117.58 394.00,116.32
             400.19,114.87 407.46,110.50 410.78,104.99
             415.26,97.52 414.41,85.79 405.98,81.45
             396.93,76.79 387.08,86.76 378.05,78.77
             366.47,68.53 377.42,50.42 394.00,50.01
             403.53,49.78 410.35,52.56 418.00,58.16
             420.28,59.83 423.62,62.21 424.46,65.01
             425.12,67.18 423.37,73.35 422.92,76.00
             421.79,82.73 421.92,88.23 422.00,95.00
             422.27,118.19 435.72,140.09 457.00,149.69
             464.54,153.09 472.84,154.07 481.00,154.68
             483.95,154.90 485.21,154.46 488.00,154.16
             503.58,152.52 502.20,150.55 515.00,144.00
             518.24,157.50 510.62,177.71 498.00,184.33
             487.76,189.70 474.87,186.99 466.01,180.24
             454.89,171.77 453.30,151.44 437.00,149.56
             429.10,148.64 422.09,154.44 420.20,162.00
             419.92,164.12 419.98,167.75 420.20,170.00
             420.16,182.97 428.96,193.51 439.00,200.84
             451.13,209.69 462.39,212.71 477.00,214.17
             480.12,214.48 481.66,215.05 485.00,214.82
             493.57,214.21 503.02,213.49 511.00,210.13
             515.33,208.30 520.33,205.64 523.99,202.71
             545.48,185.51 544.96,162.76 545.00,138.00
             545.01,132.72 545.23,129.14 546.77,124.00
             548.49,118.26 552.87,109.82 548.42,104.23
             543.93,98.59 526.14,99.44 520.00,102.00
             512.09,105.31 506.86,118.49 496.00,124.18
             473.62,135.91 450.83,112.26 452.09,90.00
             452.09,90.00 453.00,81.00 453.00,81.00
             464.66,88.30 472.76,94.60 487.00,96.70
             496.28,98.07 505.94,98.02 515.00,95.23
             545.30,85.89 553.27,47.61 534.48,24.00
             524.81,11.84 510.87,7.44 496.00,6.32
             492.97,6.10 491.82,6.56 489.00,6.83
             477.67,7.91 471.37,8.65 461.00,14.31
             452.01,19.22 441.76,28.32 438.00,38.00 Z
           M 825.00,44.00
           C 825.00,44.00 824.00,67.00 824.00,67.00
             813.20,62.18 808.79,57.34 796.00,56.32
             780.99,55.13 767.61,65.48 760.49,78.00
             750.69,95.99 750.63,125.90 760.49,144.00
             767.55,157.50 780.33,166.34 796.00,164.27
             799.36,163.82 801.86,163.57 805.00,162.08
             819.37,155.28 819.77,138.51 811.90,134.06
             808.26,132.17 803.93,133.89 800.00,134.06
             793.69,134.04 789.36,131.14 785.85,126.00
             777.05,113.11 780.89,86.60 799.00,84.19
             801.50,83.85 804.50,83.85 807.00,84.19
             814.90,85.24 820.33,91.71 822.56,99.00
             825.01,107.01 823.99,129.43 824.00,139.00
             824.01,144.85 824.23,155.48 829.21,159.28
             832.82,162.02 838.67,161.99 843.00,162.00
             850.39,162.01 861.06,162.48 862.77,153.00
             864.83,141.60 856.38,140.41 853.31,134.91
             851.80,132.19 852.01,129.01 852.00,126.00
             852.00,126.00 852.00,27.00 852.00,27.00
             851.99,23.00 851.53,13.51 849.55,10.22
             846.16,4.62 838.74,6.38 834.00,8.91
             829.13,11.51 812.60,23.67 810.09,28.01
             806.09,34.92 809.41,41.43 817.00,43.18
             819.96,43.86 822.01,43.93 825.00,44.00 Z
           M 459.00,56.00
           C 460.58,50.19 464.54,46.10 469.00,42.18
             478.58,33.76 498.02,29.34 507.47,40.18
             516.26,50.26 512.54,67.77 494.00,68.00
             486.62,68.08 485.08,68.13 478.00,65.66
             470.03,62.87 466.07,59.95 459.00,56.00 Z
           M 678.00,93.00
           C 678.00,93.00 677.42,125.00 677.42,125.00
             677.06,127.73 677.03,131.54 675.99,133.96
             672.80,141.40 662.26,140.11 661.14,150.00
             660.18,158.34 665.02,160.24 672.00,161.27
             680.40,162.51 693.15,162.04 702.00,162.00
             707.38,161.97 716.89,161.61 720.26,156.87
             721.49,155.14 721.91,153.09 721.91,151.00
             721.91,139.97 709.83,141.65 705.57,132.98
             703.01,127.77 703.99,108.77 704.00,102.00
             704.01,96.50 704.48,86.60 711.01,84.66
             718.65,82.38 717.11,93.28 719.74,96.78
             724.24,102.77 739.03,101.97 743.60,90.00
             749.12,75.53 741.29,55.86 724.00,56.46
             715.77,56.74 711.38,61.73 705.00,66.00
             704.02,63.85 703.21,61.93 701.61,60.13
             693.04,50.53 681.04,62.46 674.00,68.00
             669.76,71.34 664.32,74.60 662.65,80.00
             659.21,91.12 669.90,92.82 678.00,93.00 Z
           M 605.00,59.30
           C 593.87,61.10 585.98,62.84 577.00,70.32
             550.33,92.55 552.41,133.60 582.00,152.29
             589.24,156.87 598.50,159.21 607.00,159.82
             612.24,160.19 622.03,158.09 627.00,156.19
             655.37,145.30 667.39,110.05 651.91,84.00
             642.74,68.58 627.57,60.44 610.00,59.30
             607.96,59.04 606.98,59.20 605.00,59.30 Z
           M 908.00,59.30
           C 896.87,61.10 888.98,62.84 880.00,70.32
             854.18,91.84 855.29,131.48 883.00,150.96
             890.83,156.46 900.52,159.14 910.00,159.82
             915.24,160.19 925.03,158.09 930.00,156.19
             958.37,145.30 970.39,110.05 954.91,84.00
             945.74,68.58 930.57,60.44 913.00,59.30
             910.96,59.04 909.98,59.20 908.00,59.30 Z
           M 602.00,74.30
           C 609.81,73.52 617.85,73.79 625.00,77.38
             643.62,86.72 650.39,112.91 638.21,130.00
             630.13,141.34 620.45,145.15 607.00,145.00
             602.03,144.94 597.57,144.17 593.00,142.10
             563.31,128.63 566.14,81.08 602.00,74.30 Z
           M 905.00,74.30
           C 912.81,73.52 920.85,73.79 928.00,77.38
             946.62,86.72 953.39,112.91 941.21,130.00
             933.13,141.34 923.45,145.15 910.00,145.00
             875.64,144.61 863.81,100.71 890.00,80.53
             894.82,76.82 899.14,75.41 905.00,74.30 Z
           M 599.01,94.78
           C 589.60,97.94 594.11,108.01 600.98,106.64
             607.03,105.44 608.53,95.32 599.01,94.78 Z
           M 617.04,94.84
           C 608.08,98.35 612.88,108.35 619.90,106.55
             625.80,105.04 626.62,94.83 617.04,94.84 Z
           M 902.01,94.78
           C 892.60,97.94 897.11,108.01 903.98,106.64
             910.03,105.44 911.53,95.32 902.01,94.78 Z
           M 920.02,94.84
           C 910.83,98.32 916.00,108.32 922.90,106.55
             928.79,105.04 929.64,94.83 920.02,94.84 Z
           M 597.21,113.74
           C 589.67,118.88 595.76,127.10 601.89,124.90
             607.93,122.74 607.36,111.46 597.21,113.74 Z
           M 615.15,114.03
           C 608.20,120.17 615.09,127.51 620.87,124.64
             626.82,121.70 624.96,110.79 615.15,114.03 Z
           M 900.21,113.74
           C 892.67,118.88 898.76,127.10 904.89,124.90
             910.93,122.74 910.36,111.46 900.21,113.74 Z
           M 918.15,114.03
           C 911.20,120.17 918.09,127.51 923.87,124.64
             929.82,121.69 928.18,110.72 918.15,114.03 Z" />
</svg>
